<?xml version="1.0" encoding="utf-8"?>
<!-- Generator: Adobe Illustrator 15.0.0, SVG Export Plug-In  -->
<!DOCTYPE svg PUBLIC "-//W3C//DTD SVG 1.1//EN" "http://www.w3.org/Graphics/SVG/1.1/DTD/svg11.dtd" [
	<!ENTITY ns_flows "http://ns.adobe.com/Flows/1.0/">
]>
<svg version="1.1"
	 xmlns="http://www.w3.org/2000/svg" xmlns:xlink="http://www.w3.org/1999/xlink" xmlns:a="http://ns.adobe.com/AdobeSVGViewerExtensions/3.0/"
	 x="0px" y="0px" width="38px" height="20px" viewBox="-0.75 -0.156 38 20"
	 overflow="visible" enable-background="new -0.75 -0.156 38 20" xml:space="preserve">
<defs>
</defs>
<path fill="#333333" d="M1.1,16c0.9,0.7,1.8,1.2,2.8,1.6c1,0.4,1.9,0.5,3,0.5c1,0,1.9-0.199,2.5-0.5c0.7-0.3,1.2-0.8,1.5-1.5
	c0.3-0.6,0.5-1.5,0.5-2.399h0.7c0,0.2,0,0.5,0,0.8c0,1.7-0.7,2.9-2,3.6c1.3-0.199,2.4-0.5,3.4-0.899c1-0.4,2.1-0.9,3.3-1.601
	l0.4,0.7c-1.4,0.9-3,1.601-4.7,2.101s-3.4,0.8-4.9,0.8c-1.4,0-2.8-0.2-4.1-0.7c-1.3-0.4-2.4-1-3.2-1.8c-0.2,0-0.3-0.3-0.3-0.5
	C0,16.1,0,16,0.1,15.9C0.2,15.8,0.3,15.8,0.4,15.8C0.6,15.7,0.8,15.8,1.1,16z M15.8,7.5c0.9,0,1.3,0.4,1.3,1.3
	c0,0.7-0.2,1.4-0.7,2.101c-0.5,0.6-1.1,1.199-1.9,1.5c-0.8,0.3-1.7,0.6-2.6,0.6c-1,0-1.9-0.2-2.7-0.6c-0.8-0.4-1.5-0.9-2-1.601
	c-0.5-0.7-0.7-1.4-0.7-2.1c0-0.4,0.1-0.7,0.3-0.9C7,7.6,7.4,7.5,7.9,7.5H15.8z M12.6,6.6c-0.3,0-0.5,0-0.7-0.1
	c-0.1-0.1-0.2-0.3-0.3-0.5s-0.1-0.6-0.1-1c0-0.7,0.2-1.6,0.5-2.5c0-0.1,0-0.2,0-0.3C12,2.1,12,2,11.9,2s-0.2,0.1-0.3,0.3
	c-0.6,0.9-1,2-1.2,3.4c-0.1,0.4-0.1,0.6-0.3,0.7C9.9,6.6,9.7,6.6,9.4,6.6H8.1c-0.4,0-0.8-0.1-0.9-0.2C7,6.3,6.9,6,6.9,5.6
	c0-0.5,0.2-1,0.5-1.5c0.2-0.3,0.5-0.6,0.7-0.9C8.4,3,9,2.6,9.8,2.1c0.5-0.3,0.9-0.6,1.1-0.9c0.2-0.2,0.4-0.5,0.6-0.9
	c0-0.2,0.2-0.3,0.3-0.3c0.1,0,0.3,0.1,0.4,0.4c0.2,0.3,0.3,0.6,0.5,0.8c0.2,0.2,0.5,0.4,1,0.8c1.9,1.3,2.9,2.4,2.9,3.5
	c0,0.8-0.5,1.2-1.4,1.2h-2.6V6.6z M29,6.4c0.6-0.8,1.3-1.3,2-1.3c0.3,0,0.6,0.1,0.9,0.2c0.3,0.2,0.5,0.4,0.6,0.6
	c0.2,0.3,0.2,0.5,0.2,0.8c0,0.5,0.1,0.7,0.399,0.7c0.101,0,0.4-0.1,0.601-0.3C34.1,7,34.5,7,34.8,7c0.5,0,0.9,0.2,1.2,0.5
	s0.5,0.8,0.5,1.3s-0.1,0.9-0.4,1.2c-0.3,0.3-0.699,0.4-1.399,0.5c-0.3,0-0.5,0.1-0.601,0.1C34,10.7,34,10.8,34,10.9
	c0,0,0.1,0.199,0.2,0.6c0.1,0.4,0.2,0.7,0.2,0.9c0,0.399-0.2,0.8-0.5,1C33.6,13.7,33.2,13.8,32.7,13.8c-0.3,0-0.8-0.1-1.601-0.3
	c-0.199-0.1-0.399-0.1-0.5-0.1c-0.1,0-0.3,0-0.399,0.1C30.1,13.6,30.1,13.7,30.1,13.9c0,0.1,0.101,0.399,0.2,0.699
	c0.101,0.2,0.2,0.5,0.2,0.7c0,0.4-0.2,0.7-0.5,1s-0.7,0.4-1.2,0.4c-0.3,0-0.7-0.101-1.2-0.3c-0.399-0.2-0.699-0.2-0.8-0.2
	c-0.399,0-0.6,0.3-0.6,0.899c0,1.5-0.9,2.2-2.8,2.2c-1.101,0-2.101-0.2-3-0.7c-0.9-0.5-1.7-1.199-2.3-2.1c1.1-0.5,2.7-1.5,4.7-2.8
	c1.4-0.9,2.5-1.601,3.4-2C27.1,11.3,28,10.9,29.1,10.6c0.801-0.199,2-0.5,3.5-0.7c0.101,0,0.2,0,0.2-0.1c0-0.1-0.399-0.2-1.1-0.2
	c-1.3,0-2.601,0.2-4,0.6c-1.5,0.5-3.2,1.3-5.101,2.399c-1.5,0.9-2.5,1.5-3.1,1.801c-0.5,0.3-0.9,0.5-1,0.6s-0.4,0.2-0.9,0.4
	c-0.3-0.801-0.5-1.601-0.5-2.5c0-0.601,0.1-1.2,0.3-1.801c0.2-0.6,0.4-1.1,0.7-1.5c0.3-0.4,0.6-0.8,1-1c0.4-0.2,0.801-0.4,1.2-0.4
	c0.4,0,0.8,0.2,1.2,0.5C21.9,8.9,22.1,9,22.3,9C22.7,9,22.9,8.7,22.9,8.1C23.1,6.4,23.8,5.5,25.1,5.5c0.4,0,0.7,0.1,1,0.3
	C26.4,6,26.6,6.3,26.9,6.8C27.1,7.2,27.3,7.3,27.6,7.3C28,7.4,28.5,7,29,6.4z"/>
</svg>
