<?xml version="1.0" encoding="utf-8"?>
<!-- Generator: Adobe Illustrator 15.0.0, SVG Export Plug-In  -->
<!DOCTYPE svg PUBLIC "-//W3C//DTD SVG 1.1//EN" "http://www.w3.org/Graphics/SVG/1.1/DTD/svg11.dtd" [
	<!ENTITY ns_flows "http://ns.adobe.com/Flows/1.0/">
]>
<svg version="1.1"
	 xmlns="http://www.w3.org/2000/svg" xmlns:xlink="http://www.w3.org/1999/xlink" xmlns:a="http://ns.adobe.com/AdobeSVGViewerExtensions/3.0/"
	 x="0px" y="0px" width="102px" height="102px" viewBox="0 0 102 102" overflow="visible" enable-background="new 0 0 102 102"
	 xml:space="preserve">
<defs>
</defs>
<path fill="#333333" d="M100.93,63.501l-0.5,0.5l-18.6,0.2c-0.2,0.899-0.2,2.2-0.2,3.899c0,1.7-0.1,3.101-0.2,4l-7.5,0.2
	c-0.3,0.5-0.5,1.101-0.5,1.9c0,0.399,0.101,0.899,0.2,1.7c0.1,0.8,0.2,1.3,0.2,1.8c0,0.399,0,1.7,0,2c-1,0.2-2.101,0.2-4.101,0.2
	s-3.6,0.1-4.6,0.3l-0.5,0.5v20.5h-0.7c-0.3-3.601-0.3-6.601-0.3-10.9c0-7.2,0-10.899,0-11l8.7-0.3l0.2-6c-0.101-0.4-0.4-0.5-0.9-0.5
	h-1.1c0,0-0.801,0-1.5,0.2c-0.2,0.399-0.2,0.8-0.2,1.2c0,0.199,0,1.1,0.1,2.8c-0.5,0.2-1.3,0.2-2.6,0.2c-2.101,0-3.101,0-3,0l0.2-5
	c0.3-0.2,0.699-0.301,1.199-0.301c0.2,0,0.5,0,0.9,0s0.7,0,0.9,0c1,0,1.399-0.399,1.399-1.1c0-0.3,0-0.6-0.1-0.9v-1.1l-4.601-0.5v-5
	l5.301-0.2c0.199,0.3,0.3,0.601,0.3,1.2c0,0.2,0,0.6-0.101,1.1c0,0.5-0.1,0.9-0.1,1.101c0,0.899,0.4,1.399,1.1,1.399
	c0.301,0,0.601,0,0.9-0.1c0.3,0,0.5,0,0.8,0c0.3-0.1,0.5-0.2,0.601-0.5v-3.6l5.8-0.2c0,0-0.3,3.899,0.1,4.3v0.7l-4.5,0.3
	c0,0,0,0.4,0,1.4c0,0.6,0.101,1,0.2,1.3h6.5l0.2-8c2.7-0.4,6.1-0.601,10.2-0.5c6.6,0,10,0,10.3,0v0.8H100.93z M67.63,64.201h-2.9
	l0.2,2.899c0.2,0,0.5,0,0.9-0.1c0.399-0.1,1.399,0.1,1.899,0c0,0,0-0.6,0-1.3C67.63,64.601,67.63,64.101,67.63,64.201z
	 M67.63,75.301v-2.399h-2.9v2.399H67.63z M71.93,68.501h-2.8v2.2c0.1,0.3,0.6,0.399,1.4,0.5c0.3,0.1,0.5,0,0.699,0
	c0.5,0,0.7-0.3,0.7-1C71.93,69.701,71.93,69.101,71.93,68.501z M73.93,64.201l-0.1,2.8c0.2,0.1,0.8,0.1,0.899,0.1
	c0.2,0,0.7,0,1.101,0c0.5,0,0.8-0.399,0.7-1.1v-1.8H73.93z"/>
<path fill="#333333" d="M38.39,101.201l-0.5-0.5l-0.2-18.6c-0.9-0.2-2.2-0.2-3.9-0.2c-1.8,0-3.1-0.1-4-0.2l-0.2-7.5
	c-0.5-0.3-1.1-0.5-1.9-0.5c-0.4,0-0.9,0.101-1.7,0.2c-0.8,0.101-1.3,0.2-1.8,0.2c-0.4,0-1.7,0-2,0c-0.2-1-0.2-2.1-0.2-4.1
	s-0.1-3.601-0.3-4.601l-0.5-0.5H0.79v-0.7c3.6-0.3,6.6-0.3,10.9-0.3c7.2,0,10.9,0,11,0l0.3,8.7l6,0.2c0.4-0.101,0.5-0.4,0.5-0.9
	v-1.1c0,0,0-0.8-0.2-1.5c-0.4-0.2-0.8-0.2-1.2-0.2c-0.2,0-1.1,0-2.8,0.1c-0.2-0.5-0.2-1.3-0.2-2.6c0-2.1,0-3.1,0-3l5,0.2
	c0.2,0.3,0.3,0.7,0.3,1.2c0,0.199,0,0.5,0,0.899c0,0.4,0,0.7,0,0.9c0,1,0.4,1.399,1.1,1.399c0.3,0,0.6,0,0.9-0.1h0.9l0.5-4.6h5
	l0.2,5.3c-0.3,0.2-0.6,0.3-1.2,0.3c-0.2,0-0.6,0-1.1-0.1c-0.5-0.101-0.9-0.101-1.1-0.101c-0.9,0-1.4,0.4-1.4,1.101
	c0,0.3,0,0.6,0.1,0.899c0,0.3,0,0.5,0,0.8c0.1,0.301,0.2,0.5,0.5,0.601h3.6l0.2,5.8c0,0-3.9-0.3-4.3,0.1h-0.7l-0.5-4.699
	c0,0-0.4,0-1.4,0c-0.6,0-1,0.1-1.3,0.199v6.5l8,0.2c0.4,2.7,0.6,6.101,0.5,10.2c0,6.6,0,10,0,10.3L38.39,101.201L38.39,101.201z
	 M37.69,67.901v-2.899l-2.9,0.199c0,0.2,0,0.5,0.1,0.9s-0.1,1.4,0,1.9c0,0,0.6,0,1.3,0C37.29,67.901,37.79,67.901,37.69,67.901z
	 M26.59,67.901h2.4v-2.899h-2.4V67.901z M33.39,72.302v-2.9h-2.2c-0.3,0.101-0.4,0.601-0.5,1.4c-0.1,0.3,0,0.5,0,0.7
	c0,0.5,0.3,0.699,1,0.699C32.19,72.302,32.79,72.302,33.39,72.302z M37.69,74.302l-2.8-0.101c-0.1,0.101-0.1,0.801-0.1,0.9
	c0,0.2,0,0.7,0,1.1c0,0.5,0.4,0.801,1.1,0.7h1.8V74.302z"/>
<path fill="#333333" d="M0,37.6l0.5-0.5l18.6-0.2c0.2-0.9,0.2-2.2,0.2-3.9c0-1.8,0.1-3.1,0.2-4l7.5-0.2c0.3-0.5,0.5-1.1,0.5-1.9
	c0-0.4-0.1-0.9-0.2-1.7c-0.1-0.8-0.2-1.3-0.2-1.8c0-0.4,0-1.7,0-2c1-0.2,2.1-0.2,4.1-0.2s3.6-0.1,4.6-0.3l0.5-0.5V0H37
	c0.3,3.6,0.3,6.6,0.3,10.9c0,7.2,0,10.9,0,11l-8.7,0.3l-0.2,6c0.1,0.4,0.4,0.5,0.9,0.5h1.1c0,0,0.8,0,1.5-0.2
	c0.2-0.4,0.2-0.8,0.2-1.2c0-0.2,0-1.1-0.1-2.8c0.5-0.2,1.3-0.2,2.6-0.2c2.1,0,3.1,0,3,0l-0.2,5c-0.3,0.2-0.7,0.3-1.2,0.3
	c-0.2,0-0.5,0-0.9,0c-0.4,0-0.7,0-0.9,0c-1,0-1.4,0.4-1.4,1.1c0,0.3,0,0.6,0.1,0.9v0.9l4.6,0.5v5l-5.3,0.2c-0.2-0.3-0.3-0.6-0.3-1.2
	c0-0.2,0-0.6,0.1-1.1c0-0.5,0.1-0.9,0.1-1.1c0-0.9-0.4-1.4-1.1-1.4c-0.3,0-0.6,0-0.9,0.1c-0.3,0-0.5,0-0.8,0
	c-0.3,0.1-0.5,0.2-0.6,0.5v3.6l-5.8,0.2c0,0,0.3-3.9-0.1-4.3v-0.7l4.7-0.5c0,0,0-0.4,0-1.4c0-0.6-0.1-1-0.2-1.3H21l-0.2,8
	c-2.7,0.4-6.1,0.6-10.2,0.5c-6.6,0-10,0-10.3,0v-0.5H0z M33.3,36.9h2.9L36,34c-0.2,0-0.5,0-0.9,0.1s-1.4-0.1-1.9,0c0,0,0,0.6,0,1.3
	C33.3,36.5,33.3,37,33.3,36.9z M33.3,25.8v2.4h2.9v-2.4H33.3z M28.9,32.6h2.9v-2.2c-0.1-0.3-0.6-0.4-1.4-0.5c-0.3-0.1-0.5,0-0.7,0
	c-0.5,0-0.7,0.3-0.7,1C28.9,31.4,28.9,32,28.9,32.6z M26.9,36.9l0.1-2.8C26.9,34,26.2,34,26.1,34c-0.2,0-0.7,0-1.1,0
	c-0.5,0-0.8,0.4-0.7,1.1v1.8H26.9z"/>
<path fill="#333333" d="M63.629,0.5l0.5,0.5l0.2,18.6c0.9,0.2,2.2,0.2,3.9,0.2s3.1,0.1,4,0.2l0.3,7.5c0.5,0.3,1.1,0.5,1.9,0.5
	c0.399,0,0.899-0.1,1.699-0.2c0.801-0.1,1.301-0.2,1.801-0.2c0.399,0,1.699,0,2,0c0.199,1,0.199,2.1,0.199,4.1s0.101,3.6,0.301,4.6
	l0.5,0.5h20.5v0.7c-3.601,0.3-6.601,0.3-10.9,0.3c-7.2,0-10.9,0-11,0l-0.3-8.7l-6-0.2c-0.4,0.1-0.5,0.4-0.5,0.9v1.1
	c0,0,0,0.8,0.2,1.5c0.399,0.2,0.8,0.2,1.199,0.2c0.2,0,1.101,0,2.801-0.1c0.199,0.5,0.199,1.3,0.199,2.6c0,2.1,0,3.1,0,3l-5-0.2
	c-0.199-0.3-0.3-0.7-0.3-1.2c0-0.2,0-0.5,0-0.9c0-0.4,0-0.7,0-0.9c0-1-0.399-1.4-1.1-1.4c-0.3,0-0.601,0-0.9,0.1H68.93l-0.5,4.6h-5
	l-0.2-5.3c0.3-0.2,0.6-0.3,1.2-0.3c0.199,0,0.6,0,1.1,0.1c0.5,0,0.9,0.1,1.1,0.1c0.9,0,1.4-0.4,1.4-1.1c0-0.3,0-0.6-0.1-0.9
	c0-0.3,0-0.5,0-0.8c-0.101-0.3-0.2-0.5-0.5-0.6h-3.601l-0.2-5.8c0,0,3.9,0.3,4.301-0.1h0.699l0.5,4.7c0,0,0.4,0,1.4,0
	c0.6,0,1-0.1,1.3-0.2v-6.5l-8-0.2c-0.399-2.7-0.6-6.1-0.5-10.2c0-6.6,0-10,0-10.3h0.3V0.5z M64.43,33.8v2.9l2.899-0.2
	c0-0.2,0-0.5-0.1-0.9c-0.101-0.4,0.1-1.4,0-1.9c0,0-0.601,0-1.3,0C64.829,33.8,64.329,33.8,64.43,33.8z M75.529,33.8h-2.4v2.9h2.4
	V33.8z M68.729,29.4v2.9h2.2c0.3-0.1,0.399-0.6,0.5-1.4c0.1-0.3,0-0.5,0-0.7c0-0.5-0.301-0.7-1-0.7
	C69.93,29.4,69.329,29.4,68.729,29.4z M64.43,27.4l2.8,0.1c0.1-0.2,0.1-0.8,0.1-0.9c0-0.2,0-0.7,0-1.1c0-0.5-0.399-0.8-1.1-0.7h-1.8
	V27.4z"/>
</svg>
