<?xml version="1.0" encoding="utf-8"?>
<!-- Generator: Adobe Illustrator 15.0.0, SVG Export Plug-In  -->
<!DOCTYPE svg PUBLIC "-//W3C//DTD SVG 1.1//EN" "http://www.w3.org/Graphics/SVG/1.1/DTD/svg11.dtd" [
	<!ENTITY ns_flows "http://ns.adobe.com/Flows/1.0/">
]>
<svg version="1.1"
	 xmlns="http://www.w3.org/2000/svg" xmlns:xlink="http://www.w3.org/1999/xlink" xmlns:a="http://ns.adobe.com/AdobeSVGViewerExtensions/3.0/"
	 x="0px" y="0px" width="22px" height="22px" viewBox="-0.375 -0.351 22 22"
	 overflow="visible" enable-background="new -0.375 -0.351 22 22" xml:space="preserve">
<defs>
</defs>
<path fill="#333333" d="M11.3,19.201c-0.1,0-0.199-0.201-0.199-0.4c0-0.301-0.101-0.701-0.101-1.1c0-1.301,0.398-2.4,1.2-3.301
	c0.5-0.6,1.1-1,1.8-1.301c0.7-0.299,1.5-0.5,2.3-0.5s1.601,0.102,2.2,0.4c0.7,0.301,1.2,0.701,1.6,1.201c0.4,0.5,0.602,1,0.602,1.6
	c0,0.299-0.102,0.5-0.2,0.699C20.4,16.701,20.2,16.8,20,16.8c-0.4,0-0.8-0.301-1-0.9c-0.3-0.6-0.5-1.1-0.8-1.5s-0.601-0.6-1-0.801
	C16.8,13.4,16.3,13.3,15.7,13.3c-0.8,0-1.5,0.199-2.2,0.6s-1.2,0.9-1.6,1.6C11.5,16.201,11.3,16.9,11.3,17.8
	c0,0.4,0,0.799,0.101,1.299C11.5,19.099,11.398,19.201,11.3,19.201z M12.3,1.6C12.9,1,13.5,0.6,14,0.4C14.5,0.1,15,0,15.4,0
	c0.6,0,1,0.2,1.398,0.7c0.4,0.4,0.602,1,0.602,1.6c0,0.4-0.102,0.9-0.2,1.5C17,4.4,16.7,5,16.4,5.6c-0.2,0.5-0.5,1.1-0.801,1.7
	c0.199,0.5,0.199,0.9,0.199,1.3c0,0.8-0.3,1.6-0.898,2.1C14.3,11.299,13.5,11.5,12.6,11.5c-0.199,0-0.6,0-1.199-0.1
	c-0.5-0.101-0.899-0.101-1.101-0.101c-0.4,0-0.8,0.199-1.2,0.601c-0.4,0.4-0.7,0.9-0.9,1.5C8,14,7.9,14.701,7.9,15.3
	c0,0.9,0.2,1.699,0.6,2.5c0.4,0.799,0.9,1.4,1.6,1.9c0.7,0.5,1.4,0.697,2.1,0.697c0.5,0,0.899-0.1,1.3-0.301
	c0.4-0.199,0.8-0.6,1.3-1.1c0.3-0.299,0.601-0.5,0.9-0.5c0.2,0,0.399,0.1,0.5,0.201c0.2,0.1,0.2,0.299,0.2,0.6c0,0.5-0.301,1-1,1.4
	c-0.7,0.398-1.5,0.6-2.4,0.6c-0.8,0-1.5-0.201-2.2-0.5C10.1,20.5,9.5,20,8.9,19.5C8.4,19,8,18.3,7.6,17.599
	c-0.3-0.699-0.5-1.5-0.5-2.299c0-1,0.2-2,0.5-3c0.3-0.802,0.358-1.005,0.467-1.388c0.212-0.75,0.354-1.334-0.161-2.178
	C7.606,8.234,7.3,7.3,7.3,6.6c0-0.8,0.3-1.5,0.8-2s1.3-0.8,2.2-0.9C11,2.9,11.7,2.2,12.3,1.6z M12.7,5.8c-0.9-0.6-1.7-1.2-2.2-1.7
	C9.9,4.2,9.6,4.6,9.6,5.2c0,0.5,0.3,1.1,1,1.8c0.5,0.5,1.1,0.9,1.8,1.2C13,8.5,13.6,8.7,14,8.7c0.3,0,0.6-0.1,0.9-0.4
	C15.1,8,15.3,7.7,15.3,7.3C14.5,6.9,13.6,6.4,12.7,5.8z M6.5,17.599c-0.2-0.5-0.4-0.898-0.7-1.299c-0.3-0.4-0.6-0.801-0.9-1
	C4.5,15,4,14.701,3.4,14.5c-0.6-0.199-1.3-0.4-2-0.5c-1-0.199-1.4-0.5-1.4-0.9c0-0.5,0.4-0.799,1.1-0.799c0.7,0,1.5,0.299,2.4,0.799
	C4.3,13.701,5.1,14.4,5.8,15.3c0.4,0.6,0.8,1.199,1.1,2C7.2,18,7.4,18.599,7.4,19c0,0.201-0.1,0.301-0.2,0.301
	C7.1,19.3,7,19.201,7,19C6.8,18.599,6.7,18.099,6.5,17.599z"/>
</svg>
