<?xml version="1.0" encoding="utf-8"?>
<!-- Generator: Adobe Illustrator 15.0.0, SVG Export Plug-In  -->
<!DOCTYPE svg PUBLIC "-//W3C//DTD SVG 1.1//EN" "http://www.w3.org/Graphics/SVG/1.1/DTD/svg11.dtd" [
	<!ENTITY ns_flows "http://ns.adobe.com/Flows/1.0/">
]>
<svg version="1.1"
	 xmlns="http://www.w3.org/2000/svg" xmlns:xlink="http://www.w3.org/1999/xlink" xmlns:a="http://ns.adobe.com/AdobeSVGViewerExtensions/3.0/"
	 x="0px" y="0px" width="10px" height="1200px" viewBox="0 -0.267 10 1200"
	 overflow="visible" enable-background="new 0 -0.267 10 1200" xml:space="preserve">
<defs>
</defs>
<g>
	<path fill="#F0EEE7" d="M5.11,1199.733c0.839,0-0.122-1.042,0-3.179c0.359-2.136,1.734-5.279,0-9.419
		c-0.023-4.141,3.036-9.234,0-15.246c-0.405-3.004-0.605-6.229-0.604-9.676c-0.072-3.447,1.361-7.107,0.604-10.981
		c-0.153-1.938,3.092-3.924,2.702-5.966c0.349-2.039,2.398-4.128-1.005-6.27c0.812-2.142-0.986-4.334-0.577-6.574
		c1.519-0.559,2.931-1.121,2.421-1.688c0.942-0.565-0.805-1.135-1.892-1.707c-3.034-1.145-3.477-2.303-1.649-3.47
		c-2.372-1.167-2.39-2.349-2.854-3.543c-0.832-1.191-0.588-2.396,0.095-3.613c1.294-1.215,2.328-2.443,2.514-3.684
		c-0.147-1.238-1.637-2.489-1.037-3.753c2.459-2.524,0.547-5.097,1.625-7.713c0.674-2.615-0.799-5.277-0.342-7.982
		c-4.214-2.703-0.568-5.452-1.563-8.244c0.79-2.79-2.249-5.625,0.417-8.5c-0.295-2.875-1.824-5.795,0.208-8.754
		c2.089-1.479,1.267-2.968,2.031-4.466c2.395-1.5-1.271-3.011-1.093-4.529c-0.802-3.038-2.196-6.115-0.523-9.232
		c1.683-3.117,1.327-6.274,0.722-9.467c0.575-3.192,0.436-6.424-0.174-9.691c-4.417-1.634-1.435-3.274-2.341-4.926
		c-1.655-1.651,2.123-3.313,2.316-4.982c-0.235-1.671,2.666-3.349,2.506-5.037c-0.193-1.687-0.806-3.383-1.291-5.087
		c-2.79-3.41-1.338-6.853-0.257-10.329c0.041-1.737,0.274-3.485,1.2-5.24c0.767-1.755-1.693-3.52-2.026-5.289
		c-1.048-3.543,2.214-7.118-0.132-10.725c0.417-2.405-0.187-4.821,0.66-7.255c0.892-2.432-0.414-4.875,2.312-7.334
		c0.437-2.459,0.698-4.933,1.672-7.417c-0.26-2.483,0.5-4.982-0.139-7.493c0.209-2.511-0.488-5.033-0.724-7.568
		c-0.703-1.269-0.06-2.539-2.257-3.813c0.255-1.272-3.374-2.552-2.525-3.83c-3.78-3.839-0.122-7.707-0.04-11.602
		c-1.976-3.893,1.183-7.812-0.8-11.756c-3.276-3.945-1.703-7.914-1.713-11.908c-1.355-1.997,0.109-3.999,1.155-6.008
		c0.639-2.009,2.438-4.023,2.397-6.044c-2.335-4.041,2.46-8.102-0.29-12.188c0.391-4.086-1.058-8.192,0.163-12.32
		c-1.031-4.128-1.104-8.277,0.228-12.446c1.156-4.171,1.246-8.358-0.101-12.565c-1.068-2.104-2.297-4.211-1.946-6.326
		c-1.306-2.112,0.126-4.229,1.498-6.352c-2.564-2.123-0.516-4.249-1.647-6.379c0.364-2.131,0.85-4.267,1.433-6.406
		c-0.936-2.138,0.771-4.28,0.32-6.428c0.812-2.147,1.874-4.299,1.525-6.454c-0.256-2.157,2.862-4.315,1.138-6.478
		c2.148-1.083,2.01-2.164-0.388-3.248c0.158-1.085-0.063-2.167-1.933-3.252c-5.585-2.171-3.973-4.346-1.932-6.522
		c-1.526-2.18,3.895-4.358,0.71-6.545c-1.62-4.369,3.042-8.751,1.321-13.146c-1.659-4.395-0.51-8.803-0.212-13.224
		c0.988-4.418,0.252-8.85,0.112-13.29c-0.528-2.222,0.204-4.444,1.773-6.669c1.082-2.227,1.054-4.454-0.131-6.685
		c-2.347-4.461,1.656-8.931-0.795-13.41c-0.477-2.239,3.369-4.481,1.691-6.725c1.197-2.243-3.196-4.489-1.647-6.736
		c-0.494-4.494-1.382-8.995-0.892-13.503c0.578-1.126,1.46-2.254,1.559-3.381c0.099-1.128-0.582-2.256-3.129-3.385
		c0.376-2.258,3.038-4.516,1.136-6.775c-1.151-2.26,0.062-4.521,1.814-6.784c0.26-2.261-0.005-4.524-1.333-6.789
		c-0.047-4.527-1.158-9.062-0.118-13.597c1.036-4.536,1.812-9.076,0.071-13.617c-0.746-4.542-1.5-9.084,0.015-13.629
		c0.778-4.544,0.354-9.09-0.697-13.636c0.354-4.544-0.027-9.09-1.019-13.635c0.062-4.543-1.735-9.087,1.701-13.628
		c0.731-4.542,2.811-9.081,0.307-13.617c0.202-4.537-0.862-9.069-0.03-13.598c2.397-4.529,1.257-9.053,0.833-13.572
		c-1.385-4.52-2.469-9.034-1.109-13.542c0.661-4.507,0.318-9.009,1.057-13.503c2.069-4.495,1.589-8.982,0.314-13.46
		c-0.045-4.479-0.207-8.95-0.446-13.41c-0.239-4.461-0.56-8.913-0.925-13.354c-0.604-8.882-1.766-17.723-1.206-26.512
		c0.099-8.791,0.907-17.531,1.206-26.212c1.013-4.341,1.665-8.667,1.922-12.979c1.556-4.31-1.436-8.605-0.453-12.884
		c1.739-4.278-0.042-8.539-0.567-12.783c1.679-4.244-0.624-8.47-0.901-12.677c2.258-4.208,1.459-8.396,1.067-12.566
		c-0.363-4.168-1.193-8.317-0.49-12.445c-0.548-4.129,1.315-8.236-0.608-12.321c-1.401-4.085,0.732-8.149,0.031-12.189
		c0.344-4.041,1.812-8.058-1.078-12.051c-0.781-3.994,3.521-7.963,0.343-11.907c0.276-3.945,0.099-7.864,0.71-11.758
		c-2.39-3.894,0.638-7.76,0.025-11.601c2.136-3.839,2.085-7.653,1.347-11.437c-0.161-3.786,4.766-7.542-0.651-11.27
		c0.455-3.727-0.335-7.425-0.401-11.093c-2.854-3.668,0.443-7.306-0.294-10.912c-0.061-3.607,1.555-7.183,0.178-10.725
		c-1.454-3.542-0.851-7.053,0.028-10.53c-2.42-3.476,0.947-6.921-0.691-10.329c-2.195-3.41,1.566-6.785,0.485-10.124
		c-2.753-3.339,3.036-6.643,0.004-9.91c0.545-3.267,0.319-6.498-0.684-9.69c0.466-3.194-2.271-6.349-0.584-9.466
		c2.222-3.117,2.391-6.195,1.264-9.234c0.931-6.078-0.837-11.996,0.11-17.748c-0.658-5.752-0.102-11.336-0.11-16.745
		C4.602,99.028,4.264,93.794,4.22,88.744c2.044-5.051,0.55-9.918,0.891-14.592c0.181-4.675,1.753-9.158,1.09-13.441
		c1.11-4.282-0.553-8.365-1.09-12.238c1.071-3.874-2.455-7.538,0.07-10.986c1.315-3.448,1.323-6.679-0.07-9.684
		c0.508-6.01-1.332-11.119,0-15.26c0.06-2.583,0.187-4.79,0.3-6.603c2.465-5.041,1.257-5.708-1.66-4.791
		c0.311,0-0.025-0.886-1.375-1.125C1.442-0.141,0,0.589,0,0.589l0.121,1199.144C0.121,1199.733,6.929,1199.733,5.11,1199.733z"/>
</g>
</svg>
