<?xml version="1.0" encoding="utf-8"?>
<!-- Generator: Adobe Illustrator 15.0.0, SVG Export Plug-In  -->
<!DOCTYPE svg PUBLIC "-//W3C//DTD SVG 1.1//EN" "http://www.w3.org/Graphics/SVG/1.1/DTD/svg11.dtd" [
	<!ENTITY ns_flows "http://ns.adobe.com/Flows/1.0/">
]>
<svg version="1.1"
	 xmlns="http://www.w3.org/2000/svg" xmlns:xlink="http://www.w3.org/1999/xlink" xmlns:a="http://ns.adobe.com/AdobeSVGViewerExtensions/3.0/"
	 x="0px" y="0px" width="1200px" height="10px" viewBox="0 -0.242 1200 10"
	 overflow="visible" enable-background="new 0 -0.242 1200 10" xml:space="preserve">
<defs>
</defs>
<g>
	<path fill="#F0EEE7" fill-opacity="1.0" d="M1200,4.769c0-0.839-1.103,0.122-3.239,0c-2.136-0.359-5.31-1.734-9.449,0
		c-4.141,0.023-9.249-3.036-15.262,0c-3.004,0.405-6.235,0.605-9.683,0.604c-3.447,0.072-7.111-1.361-10.985-0.604
		c-1.938,0.153-3.926-3.092-5.968-2.702c-2.039-0.349-4.129-2.398-6.271,1.005c-2.142-0.812-4.334,0.986-6.574,0.577
		c-0.56-1.519-1.122-2.931-1.688-2.421c-0.565-0.942-1.135,0.805-1.707,1.892c-1.145,3.034-2.303,3.477-3.47,1.649
		c-1.167,2.372-2.349,2.39-3.543,2.854c-1.191,0.832-2.396,0.588-3.613-0.095c-1.215-1.294-2.443-2.328-3.684-2.514
		c-1.238,0.147-2.489,1.637-3.753,1.037c-2.524-2.459-5.097-0.547-7.713-1.625c-2.615-0.674-5.277,0.799-7.982,0.342
		c-2.703,4.214-5.452,0.568-8.244,1.563c-2.79-0.79-5.625,2.249-8.5-0.417c-2.875,0.295-5.795,1.824-8.754-0.208
		c-1.479-2.089-2.968-1.267-4.466-2.031c-1.5-2.395-3.011,1.271-4.529,1.093c-3.038,0.802-6.115,2.196-9.232,0.523
		c-3.117-1.683-6.274-1.327-9.467-0.722c-3.192-0.575-6.424-0.436-9.691,0.174c-1.634,4.417-3.274,1.435-4.926,2.341
		c-1.651,1.655-3.313-2.123-4.982-2.316c-1.671,0.235-3.349-2.666-5.037-2.506c-1.687,0.193-3.383,0.806-5.087,1.291
		c-3.41,2.79-6.853,1.338-10.329,0.257c-1.737-0.041-3.485-0.274-5.24-1.2c-1.755-0.767-3.52,1.693-5.289,2.026
		c-3.543,1.048-7.118-2.214-10.725,0.132c-2.405-0.417-4.821,0.187-7.255-0.66c-2.432-0.892-4.875,0.414-7.334-2.312
		c-2.459-0.437-4.933-0.698-7.417-1.672c-2.483,0.26-4.982-0.5-7.493,0.139c-2.511-0.209-5.033,0.488-7.568,0.724
		c-1.269,0.703-2.539,0.06-3.813,2.257c-1.272-0.255-2.552,3.374-3.83,2.525c-3.839,3.78-7.707,0.122-11.602,0.04
		c-3.893,1.976-7.812-1.183-11.756,0.8c-3.945,3.276-7.914,1.703-11.908,1.713c-1.997,1.355-3.999-0.109-6.008-1.155
		c-2.009-0.639-4.023-2.438-6.044-2.397c-4.041,2.335-8.102-2.46-12.188,0.29c-4.086-0.391-8.192,1.058-12.32-0.163
		c-4.128,1.031-8.277,1.104-12.446-0.228c-4.171-1.156-8.358-1.246-12.565,0.101c-2.104,1.068-4.211,2.297-6.326,1.946
		c-2.112,1.306-4.229-0.126-6.352-1.498c-2.123,2.564-4.249,0.516-6.379,1.647c-2.131-0.364-4.267-0.85-6.406-1.433
		c-2.138,0.936-4.28-0.771-6.428-0.32c-2.147-0.812-4.299-1.874-6.454-1.525c-2.157,0.256-4.315-2.862-6.478-1.138
		c-1.083-2.148-2.164-2.01-3.248,0.388c-1.085-0.158-2.167,0.063-3.252,1.933c-2.171,5.585-4.346,3.973-6.522,1.932
		c-2.18,1.526-4.358-3.895-6.545-0.71c-4.369,1.62-8.751-3.042-13.146-1.321c-4.395,1.659-8.803,0.51-13.224,0.212
		c-4.418-0.988-8.85-0.252-13.29-0.112c-2.222,0.528-4.444-0.204-6.669-1.773c-2.227-1.082-4.454-1.054-6.685,0.131
		c-4.461,2.347-8.931-1.656-13.41,0.795c-2.239,0.477-4.481-3.369-6.725-1.691c-2.243-1.197-4.489,3.196-6.736,1.647
		c-4.494,0.494-8.995,1.382-13.503,0.892c-1.126-0.578-2.254-1.46-3.381-1.559c-1.128-0.099-2.256,0.582-3.385,3.129
		c-2.258-0.376-4.516-3.038-6.775-1.136c-2.26,1.151-4.521-0.062-6.784-1.814c-2.261-0.26-4.524,0.005-6.789,1.333
		c-4.527,0.047-9.062,1.158-13.597,0.118c-4.536-1.036-9.076-1.812-13.617-0.071c-4.542,0.746-9.084,1.5-13.629-0.015
		C609.092,3.976,604.546,4.4,600,5.451c-4.544-0.354-9.09,0.027-13.635,1.019c-4.543-0.062-9.087,1.735-13.628-1.701
		c-4.542-0.731-9.081-2.811-13.617-0.307c-4.537-0.202-9.069,0.862-13.598,0.03c-4.529-2.397-9.053-1.257-13.572-0.833
		c-4.52,1.385-9.034,2.469-13.542,1.109c-4.507-0.661-9.009-0.318-13.503-1.057c-4.495-2.069-8.982-1.589-13.46-0.314
		c-4.479,0.045-8.95,0.207-13.41,0.446c-4.461,0.239-8.913,0.56-13.354,0.925c-8.882,0.604-17.723,1.766-26.512,1.206
		c-8.791-0.099-17.531-0.907-26.212-1.206c-4.341-1.013-8.667-1.665-12.979-1.922c-4.31-1.556-8.605,1.436-12.884,0.453
		c-4.278-1.739-8.539,0.042-12.783,0.567c-4.244-1.679-8.47,0.624-12.677,0.901c-4.208-2.258-8.396-1.459-12.566-1.067
		c-4.168,0.363-8.317,1.193-12.445,0.49c-4.129,0.548-8.236-1.315-12.321,0.608c-4.085,1.401-8.149-0.732-12.189-0.031
		c-4.041-0.344-8.058-1.812-12.051,1.078c-3.994,0.781-7.963-3.521-11.907-0.343c-3.945-0.276-7.864-0.099-11.758-0.71
		c-3.894,2.39-7.76-0.638-11.601-0.025c-3.839-2.136-7.653-2.085-11.437-1.347c-3.786,0.161-7.542-4.766-11.27,0.651
		c-3.727-0.455-7.425,0.335-11.093,0.401c-3.668,2.854-7.306-0.443-10.912,0.294c-3.607,0.061-7.183-1.555-10.725-0.178
		c-3.542,1.454-7.053,0.851-10.53-0.028c-3.476,2.42-6.921-0.947-10.329,0.691c-3.41,2.195-6.785-1.566-10.124-0.485
		c-3.339,2.753-6.643-3.036-9.91-0.004c-3.267-0.545-6.498-0.319-9.69,0.684c-3.194-0.466-6.349,2.271-9.466,0.584
		c-3.117-2.222-6.195-2.391-9.234-1.264C133,3.838,127.082,5.605,121.33,4.658c-5.752,0.658-11.336,0.102-16.745,0.11
		C99.174,5.277,93.94,5.615,88.89,5.659c-5.051-2.044-9.918-0.55-14.592-0.891c-4.675-0.181-9.158-1.753-13.441-1.09
		c-4.282-1.11-8.365,0.553-12.238,1.09c-3.874-1.071-7.538,2.455-10.986-0.07c-3.448-1.315-6.679-1.323-9.684,0.07
		c-6.01-0.508-11.119,1.332-15.26,0C4.408,4.575,0,3.701,0,4.769c0-0.524,0,4.989,0,4.989h1200C1200,9.758,1200,2.95,1200,4.769z"/>
</g>
</svg>
